<svg xmlns="http://www.w3.org/2000/svg">
  <defs>
    <!-- Icons go here -->
    <symbol id="icon-calendar" viewBox="0 0 8.4666 10.58325">
        <svg xmlns="http://www.w3.org/2000/svg" xmlns:xlink="http://www.w3.org/1999/xlink" xmlns:xodm="http://www.corel.com/coreldraw/odm/2003" xml:space="preserve" version="1.1" style="shape-rendering:geometricPrecision;text-rendering:geometricPrecision;image-rendering:optimizeQuality;" viewBox="0 0 8.4666 10.58325" x="0px" y="0px" fill-rule="evenodd" clip-rule="evenodd"><defs><style type="text/css">
        .fil0 {fill:black;fill-rule:nonzero}
        </style></defs><g><path class="fil0" d="M1.2527 1.0479l0.2913 0 0 -0.1971c0,-0.1174 0.0482,-0.2242 0.1254,-0.3016 0.0779,-0.0777 0.1847,-0.1259 0.3021,-0.1259 0.1173,0 0.2242,0.0481 0.3016,0.1254 0.0777,0.0779 0.1259,0.1847 0.1259,0.3021l0 0.1971 0.6529 0 0 -0.1971c0,-0.1174 0.0482,-0.2242 0.1254,-0.3016 0.0779,-0.0777 0.1847,-0.1259 0.3021,-0.1259 0.1173,0 0.2242,0.0481 0.3016,0.1254 0.0777,0.0779 0.1259,0.1847 0.1259,0.3021l0 0.1971 0.6528 0 0 -0.1971c0,-0.1174 0.0482,-0.2242 0.1254,-0.3016 0.0779,-0.0778 0.1848,-0.1259 0.3021,-0.1259 0.1174,0 0.2242,0.0482 0.3016,0.1254 0.0777,0.0779 0.1259,0.1847 0.1259,0.3021l0 0.1971 0.6529 0 0 -0.1971c0,-0.1174 0.0482,-0.2242 0.1254,-0.3016 0.0779,-0.0778 0.1848,-0.1259 0.3021,-0.1259 0.1174,0 0.2242,0.0482 0.3016,0.1254 0.0777,0.0779 0.1259,0.1847 0.1259,0.3021l0 0.1971 0.2913 0c0.1741,0 0.3329,0.0714 0.448,0.1864l0.0008 0.0008c0.1148,0.115 0.1861,0.2737 0.1861,0.4477l0 5.7255c0,0.1746 -0.0714,0.3336 -0.1864,0.4486l-0.0078 0.0072c-0.1145,0.1108 -0.2702,0.1792 -0.4407,0.1792l-5.9612 0c-0.1743,0 -0.3332,-0.0715 -0.4482,-0.1867 -0.1153,-0.1147 -0.1867,-0.2737 -0.1867,-0.4483l0 -5.7255c0,-0.1741 0.0714,-0.3329 0.1864,-0.448l0.0008 -0.0008c0.115,-0.1148 0.2737,-0.1861 0.4477,-0.1861zm2.9806 5.3284c0.1294,0 0.2467,0.0526 0.3314,0.1373l0.0074 0.0081c0.0805,0.0842 0.1299,0.1983 0.1299,0.3233 0,0.1289 -0.0525,0.246 -0.1373,0.3309 -0.0856,0.0854 -0.2026,0.1378 -0.3314,0.1378 -0.1289,0 -0.246,-0.0525 -0.3309,-0.1373 -0.0854,-0.0856 -0.1378,-0.2026 -0.1378,-0.3314 0,-0.1289 0.0525,-0.2462 0.1376,-0.3311 0.0844,-0.085 0.2017,-0.1376 0.3311,-0.1376zm0.1518 0.3169c-0.0388,-0.0388 -0.0925,-0.0629 -0.1518,-0.0629 -0.0593,0 -0.113,0.0241 -0.1518,0.0629 -0.0389,0.0384 -0.0629,0.0922 -0.0629,0.1518 0,0.0596 0.0239,0.1133 0.0624,0.1518 0.039,0.039 0.0927,0.0629 0.1523,0.0629 0.0596,0 0.1133,-0.0239 0.1518,-0.0624 0.039,-0.039 0.0629,-0.0927 0.0629,-0.1523 0,-0.057 -0.0219,-0.1087 -0.0574,-0.1466l-0.0055 -0.0052zm-1.4051 -0.3169c0.1293,0 0.2467,0.0526 0.3314,0.1373 0.0847,0.0847 0.1373,0.2021 0.1373,0.3314 0,0.1294 -0.0526,0.2467 -0.1373,0.3314l-0.0081 0.0074c-0.0842,0.0805 -0.1983,0.1299 -0.3233,0.1299 -0.1289,0 -0.246,-0.0525 -0.3309,-0.1373 -0.0854,-0.0856 -0.1378,-0.2026 -0.1378,-0.3314 0,-0.1289 0.0525,-0.2462 0.1376,-0.3311 0.0844,-0.085 0.2017,-0.1376 0.3311,-0.1376zm0.1518 0.3169c-0.0388,-0.0388 -0.0926,-0.0629 -0.1518,-0.0629 -0.0593,0 -0.113,0.0241 -0.1518,0.0629 -0.0389,0.0384 -0.0629,0.0922 -0.0629,0.1518 0,0.0596 0.0239,0.1133 0.0624,0.1518 0.039,0.039 0.0927,0.0629 0.1523,0.0629 0.057,0 0.1087,-0.0219 0.1466,-0.0574l0.0052 -0.0055c0.0388,-0.0388 0.0629,-0.0925 0.0629,-0.1518 0,-0.0592 -0.0241,-0.113 -0.0629,-0.1518zm-1.405 -0.3169c0.1293,0 0.2467,0.0526 0.3314,0.1373 0.0847,0.0847 0.1373,0.2021 0.1373,0.3314 0,0.1294 -0.0526,0.2467 -0.1373,0.3314l-0.0081 0.0074c-0.0842,0.0805 -0.1983,0.1299 -0.3233,0.1299 -0.1289,0 -0.246,-0.0525 -0.3309,-0.1373 -0.0854,-0.0856 -0.1378,-0.2026 -0.1378,-0.3314 0,-0.1289 0.0525,-0.2462 0.1376,-0.3311 0.0844,-0.085 0.2017,-0.1376 0.3311,-0.1376zm5.013 -1.0998c0.1294,0 0.2467,0.0526 0.3314,0.1373l0.0074 0.0081c0.0805,0.0842 0.1299,0.1983 0.1299,0.3233 0,0.1289 -0.0525,0.246 -0.1373,0.3309 -0.0856,0.0854 -0.2026,0.1378 -0.3314,0.1378 -0.1289,0 -0.2462,-0.0525 -0.3311,-0.1376 -0.085,-0.0844 -0.1376,-0.2017 -0.1376,-0.3311 0,-0.1293 0.0526,-0.2467 0.1373,-0.3314 0.0847,-0.0847 0.2021,-0.1373 0.3314,-0.1373zm0.1518 0.3169c-0.0388,-0.0388 -0.0925,-0.0629 -0.1518,-0.0629 -0.0592,0 -0.113,0.0241 -0.1518,0.0629 -0.0388,0.0388 -0.0629,0.0926 -0.0629,0.1518 0,0.0593 0.0241,0.113 0.0629,0.1518 0.0384,0.0389 0.0922,0.0629 0.1518,0.0629 0.0596,0 0.1133,-0.0239 0.1518,-0.0624 0.039,-0.039 0.0629,-0.0927 0.0629,-0.1523 0,-0.057 -0.0219,-0.1087 -0.0574,-0.1466l-0.0055 -0.0052zm-1.405 -0.3169c0.1294,0 0.2467,0.0526 0.3314,0.1373l0.0074 0.0081c0.0805,0.0842 0.1299,0.1983 0.1299,0.3233 0,0.1289 -0.0525,0.246 -0.1373,0.3309 -0.0856,0.0854 -0.2026,0.1378 -0.3314,0.1378 -0.1289,0 -0.2462,-0.0525 -0.3311,-0.1376 -0.085,-0.0844 -0.1376,-0.2017 -0.1376,-0.3311 0,-0.1293 0.0526,-0.2467 0.1373,-0.3314 0.0847,-0.0847 0.2021,-0.1373 0.3314,-0.1373zm0.1518 0.3169c-0.0388,-0.0388 -0.0925,-0.0629 -0.1518,-0.0629 -0.0592,0 -0.113,0.0241 -0.1518,0.0629 -0.0388,0.0388 -0.0629,0.0926 -0.0629,0.1518 0,0.0593 0.0241,0.113 0.0629,0.1518 0.0384,0.0389 0.0922,0.0629 0.1518,0.0629 0.0596,0 0.1133,-0.0239 0.1518,-0.0624 0.039,-0.039 0.0629,-0.0927 0.0629,-0.1523 0,-0.057 -0.0219,-0.1087 -0.0574,-0.1466l-0.0055 -0.0052zm-1.4051 -0.3169c0.1294,0 0.2467,0.0526 0.3314,0.1373l0.0074 0.0081c0.0805,0.0842 0.1299,0.1983 0.1299,0.3233 0,0.1289 -0.0525,0.246 -0.1373,0.3309 -0.0856,0.0854 -0.2026,0.1378 -0.3314,0.1378 -0.1289,0 -0.246,-0.0525 -0.3309,-0.1373 -0.0854,-0.0856 -0.1378,-0.2026 -0.1378,-0.3314 0,-0.1289 0.0525,-0.2462 0.1376,-0.3311 0.0844,-0.085 0.2017,-0.1376 0.3311,-0.1376zm0.1518 0.3169c-0.0388,-0.0388 -0.0925,-0.0629 -0.1518,-0.0629 -0.0593,0 -0.113,0.0241 -0.1518,0.0629 -0.0389,0.0384 -0.0629,0.0922 -0.0629,0.1518 0,0.0596 0.0239,0.1133 0.0624,0.1518 0.039,0.039 0.0927,0.0629 0.1523,0.0629 0.0596,0 0.1133,-0.0239 0.1518,-0.0624 0.039,-0.039 0.0629,-0.0927 0.0629,-0.1523 0,-0.057 -0.0219,-0.1087 -0.0574,-0.1466l-0.0055 -0.0052zm-1.4051 -0.3169c0.1293,0 0.2467,0.0526 0.3314,0.1373 0.0847,0.0847 0.1373,0.2021 0.1373,0.3314 0,0.1294 -0.0526,0.2467 -0.1373,0.3314l-0.0081 0.0074c-0.0842,0.0805 -0.1983,0.1299 -0.3233,0.1299 -0.1289,0 -0.246,-0.0525 -0.3309,-0.1373 -0.0854,-0.0856 -0.1378,-0.2026 -0.1378,-0.3314 0,-0.1289 0.0525,-0.2462 0.1376,-0.3311 0.0844,-0.085 0.2017,-0.1376 0.3311,-0.1376zm0.1518 0.3169c-0.0388,-0.0388 -0.0926,-0.0629 -0.1518,-0.0629 -0.0593,0 -0.113,0.0241 -0.1518,0.0629 -0.0389,0.0384 -0.0629,0.0922 -0.0629,0.1518 0,0.0596 0.0239,0.1133 0.0624,0.1518 0.039,0.039 0.0927,0.0629 0.1523,0.0629 0.057,0 0.1087,-0.0219 0.1466,-0.0574l0.0052 -0.0055c0.0388,-0.0388 0.0629,-0.0925 0.0629,-0.1518 0,-0.0592 -0.0241,-0.113 -0.0629,-0.1518zm-1.405 -0.3169c0.1293,0 0.2467,0.0526 0.3314,0.1373 0.0847,0.0847 0.1373,0.2021 0.1373,0.3314 0,0.1294 -0.0526,0.2467 -0.1373,0.3314l-0.0081 0.0074c-0.0842,0.0805 -0.1983,0.1299 -0.3233,0.1299 -0.1289,0 -0.246,-0.0525 -0.3309,-0.1373 -0.0854,-0.0856 -0.1378,-0.2026 -0.1378,-0.3314 0,-0.1289 0.0525,-0.2462 0.1376,-0.3311 0.0844,-0.085 0.2017,-0.1376 0.3311,-0.1376zm5.013 -1.0999c0.1294,0 0.2467,0.0526 0.3314,0.1373l0.0074 0.0081c0.0805,0.0842 0.1299,0.1983 0.1299,0.3233 0,0.1289 -0.0525,0.246 -0.1373,0.3309 -0.0856,0.0854 -0.2026,0.1378 -0.3314,0.1378 -0.1289,0 -0.2462,-0.0525 -0.3311,-0.1376 -0.085,-0.0844 -0.1376,-0.2017 -0.1376,-0.3311 0,-0.1293 0.0526,-0.2467 0.1373,-0.3314 0.0847,-0.0847 0.2021,-0.1373 0.3314,-0.1373zm0.1518 0.3169c-0.0388,-0.0388 -0.0925,-0.0629 -0.1518,-0.0629 -0.0592,0 -0.113,0.0241 -0.1518,0.0629 -0.0388,0.0388 -0.0629,0.0926 -0.0629,0.1518 0,0.0593 0.0241,0.113 0.0629,0.1518 0.0384,0.0389 0.0922,0.0629 0.1518,0.0629 0.0596,0 0.1133,-0.0239 0.1518,-0.0624 0.039,-0.039 0.0629,-0.0927 0.0629,-0.1523 0,-0.057 -0.0219,-0.1087 -0.0574,-0.1466l-0.0055 -0.0052zm-1.405 -0.3169c0.1294,0 0.2467,0.0526 0.3314,0.1373l0.0074 0.0081c0.0805,0.0842 0.1299,0.1983 0.1299,0.3233 0,0.1289 -0.0525,0.246 -0.1373,0.3309 -0.0856,0.0854 -0.2026,0.1378 -0.3314,0.1378 -0.1289,0 -0.2462,-0.0525 -0.3311,-0.1376 -0.085,-0.0844 -0.1376,-0.2017 -0.1376,-0.3311 0,-0.1293 0.0526,-0.2467 0.1373,-0.3314 0.0847,-0.0847 0.2021,-0.1373 0.3314,-0.1373zm0.1518 0.3169c-0.0388,-0.0388 -0.0925,-0.0629 -0.1518,-0.0629 -0.0592,0 -0.113,0.0241 -0.1518,0.0629 -0.0388,0.0388 -0.0629,0.0926 -0.0629,0.1518 0,0.0593 0.0241,0.113 0.0629,0.1518 0.0384,0.0389 0.0922,0.0629 0.1518,0.0629 0.0596,0 0.1133,-0.0239 0.1518,-0.0624 0.039,-0.039 0.0629,-0.0927 0.0629,-0.1523 0,-0.057 -0.0219,-0.1087 -0.0574,-0.1466l-0.0055 -0.0052zm-1.4051 -0.3169c0.1294,0 0.2467,0.0526 0.3314,0.1373l0.0074 0.0081c0.0805,0.0842 0.1299,0.1983 0.1299,0.3233 0,0.1289 -0.0525,0.246 -0.1373,0.3309 -0.0856,0.0854 -0.2026,0.1378 -0.3314,0.1378 -0.1289,0 -0.246,-0.0525 -0.3309,-0.1373 -0.0854,-0.0856 -0.1378,-0.2026 -0.1378,-0.3314 0,-0.1289 0.0525,-0.2462 0.1376,-0.3311 0.0844,-0.085 0.2017,-0.1376 0.3311,-0.1376zm0.1518 0.3169c-0.0388,-0.0388 -0.0925,-0.0629 -0.1518,-0.0629 -0.0593,0 -0.113,0.0241 -0.1518,0.0629 -0.0389,0.0384 -0.0629,0.0922 -0.0629,0.1518 0,0.0596 0.0239,0.1133 0.0624,0.1518 0.039,0.039 0.0927,0.0629 0.1523,0.0629 0.0596,0 0.1133,-0.0239 0.1518,-0.0624 0.039,-0.039 0.0629,-0.0927 0.0629,-0.1523 0,-0.057 -0.0219,-0.1087 -0.0574,-0.1466l-0.0055 -0.0052zm-1.4051 -0.3169c0.1293,0 0.2467,0.0526 0.3314,0.1373 0.0847,0.0847 0.1373,0.2021 0.1373,0.3314 0,0.1294 -0.0526,0.2467 -0.1373,0.3314l-0.0081 0.0074c-0.0842,0.0805 -0.1983,0.1299 -0.3233,0.1299 -0.1289,0 -0.246,-0.0525 -0.3309,-0.1373 -0.0854,-0.0856 -0.1378,-0.2026 -0.1378,-0.3314 0,-0.1289 0.0525,-0.2462 0.1376,-0.3311 0.0844,-0.085 0.2017,-0.1376 0.3311,-0.1376zm0.1518 0.3169c-0.0388,-0.0388 -0.0926,-0.0629 -0.1518,-0.0629 -0.0593,0 -0.113,0.0241 -0.1518,0.0629 -0.0389,0.0384 -0.0629,0.0922 -0.0629,0.1518 0,0.0596 0.0239,0.1133 0.0624,0.1518 0.039,0.039 0.0927,0.0629 0.1523,0.0629 0.057,0 0.1087,-0.0219 0.1466,-0.0574l0.0052 -0.0055c0.0388,-0.0388 0.0629,-0.0925 0.0629,-0.1518 0,-0.0592 -0.0241,-0.113 -0.0629,-0.1518zm-1.405 -0.3169c0.1293,0 0.2467,0.0526 0.3314,0.1373 0.0847,0.0847 0.1373,0.2021 0.1373,0.3314 0,0.1294 -0.0526,0.2467 -0.1373,0.3314l-0.0081 0.0074c-0.0842,0.0805 -0.1983,0.1299 -0.3233,0.1299 -0.1289,0 -0.246,-0.0525 -0.3309,-0.1373 -0.0854,-0.0856 -0.1378,-0.2026 -0.1378,-0.3314 0,-0.1289 0.0525,-0.2462 0.1376,-0.3311 0.0844,-0.085 0.2017,-0.1376 0.3311,-0.1376zm5.013 -1.0998c0.1289,0 0.246,0.0525 0.3309,0.1373 0.0854,0.0856 0.1378,0.2026 0.1378,0.3314 0,0.1289 -0.0525,0.2462 -0.1376,0.3311 -0.0844,0.085 -0.2017,0.1376 -0.3311,0.1376 -0.1293,0 -0.2467,-0.0526 -0.3314,-0.1373 -0.0847,-0.0847 -0.1373,-0.2021 -0.1373,-0.3314 0,-0.1294 0.0526,-0.2467 0.1373,-0.3314l0.0081 -0.0074c0.0842,-0.0805 0.1983,-0.1299 0.3233,-0.1299zm0.152 0.3166c-0.0387,-0.0387 -0.0924,-0.0626 -0.152,-0.0626 -0.057,0 -0.1087,0.0219 -0.1466,0.0574l-0.0052 0.0055c-0.0388,0.0388 -0.0629,0.0925 -0.0629,0.1518 0,0.0592 0.0241,0.113 0.0629,0.1518 0.0388,0.0388 0.0926,0.0629 0.1518,0.0629 0.0593,0 0.113,-0.0241 0.1518,-0.0629 0.0389,-0.0384 0.0629,-0.0922 0.0629,-0.1518 0,-0.0596 -0.0239,-0.1133 -0.0627,-0.1521zm-1.4052 -0.3166c0.1289,0 0.246,0.0525 0.3309,0.1373 0.0854,0.0856 0.1378,0.2026 0.1378,0.3314 0,0.1289 -0.0525,0.2462 -0.1376,0.3311 -0.0844,0.085 -0.2017,0.1376 -0.3311,0.1376 -0.1293,0 -0.2467,-0.0526 -0.3314,-0.1373 -0.0847,-0.0847 -0.1373,-0.2021 -0.1373,-0.3314 0,-0.1294 0.0526,-0.2467 0.1373,-0.3314l0.0081 -0.0074c0.0842,-0.0805 0.1983,-0.1299 0.3233,-0.1299zm0.152 0.3166c-0.0387,-0.0387 -0.0924,-0.0626 -0.152,-0.0626 -0.057,0 -0.1087,0.0219 -0.1466,0.0574l-0.0052 0.0055c-0.0388,0.0388 -0.0629,0.0925 -0.0629,0.1518 0,0.0592 0.0241,0.113 0.0629,0.1518 0.0388,0.0388 0.0926,0.0629 0.1518,0.0629 0.0593,0 0.113,-0.0241 0.1518,-0.0629 0.0389,-0.0384 0.0629,-0.0922 0.0629,-0.1518 0,-0.0596 -0.0239,-0.1133 -0.0627,-0.1521zm-1.4053 -0.3166c0.1289,0 0.246,0.0525 0.3309,0.1373 0.0854,0.0856 0.1378,0.2026 0.1378,0.3314 0,0.1289 -0.0525,0.2462 -0.1376,0.3311 -0.0844,0.085 -0.2017,0.1376 -0.3311,0.1376 -0.1294,0 -0.2467,-0.0526 -0.3314,-0.1373l-0.0074 -0.0081c-0.0805,-0.0842 -0.1299,-0.1983 -0.1299,-0.3233 0,-0.1289 0.0525,-0.246 0.1373,-0.3309 0.0856,-0.0854 0.2026,-0.1378 0.3314,-0.1378zm0.152 0.3166c-0.0387,-0.0387 -0.0924,-0.0626 -0.152,-0.0626 -0.0596,0 -0.1133,0.0239 -0.1518,0.0624 -0.039,0.039 -0.0629,0.0927 -0.0629,0.1523 0,0.057 0.0219,0.1087 0.0574,0.1466l0.0055 0.0052c0.0388,0.0388 0.0925,0.0629 0.1518,0.0629 0.0593,0 0.113,-0.0241 0.1518,-0.0629 0.0389,-0.0384 0.0629,-0.0922 0.0629,-0.1518 0,-0.0596 -0.0239,-0.1133 -0.0627,-0.1521zm-2.5873 -2.3455l0.347 0 0 -0.1971c0,-0.0478 -0.0195,-0.0914 -0.0508,-0.1227 -0.0313,-0.0313 -0.0748,-0.0508 -0.1227,-0.0508 -0.0478,0 -0.0914,0.0195 -0.1227,0.0508 -0.0313,0.0313 -0.0508,0.0749 -0.0508,0.1227l0 0.1971zm1.5079 0l0.347 0 0 -0.1971c0,-0.0478 -0.0195,-0.0914 -0.0508,-0.1227 -0.0313,-0.0313 -0.0748,-0.0508 -0.1227,-0.0508 -0.0478,0 -0.0914,0.0195 -0.1227,0.0508 -0.0313,0.0313 -0.0508,0.0749 -0.0508,0.1227l0 0.1971zm1.5078 0l0.347 0 0 -0.1971c0,-0.0478 -0.0195,-0.0914 -0.0508,-0.1227 -0.0313,-0.0313 -0.0749,-0.0508 -0.1227,-0.0508 -0.0479,0 -0.0914,0.0195 -0.1227,0.0508 -0.0313,0.0313 -0.0508,0.0749 -0.0508,0.1227l0 0.1971zm1.5079 0l0.347 0 0 -0.1971c0,-0.0478 -0.0195,-0.0914 -0.0508,-0.1227 -0.0313,-0.0313 -0.0749,-0.0508 -0.1227,-0.0508 -0.0479,0 -0.0914,0.0195 -0.1227,0.0508 -0.0313,0.0313 -0.0508,0.0749 -0.0508,0.1227l0 0.1971zm-0.9069 0.254l0 0.1971c0,0.1173 -0.0481,0.2242 -0.1254,0.3016 -0.0779,0.0777 -0.1847,0.1259 -0.3021,0.1259 -0.0701,0 -0.127,-0.0569 -0.127,-0.127 0,-0.0701 0.0569,-0.127 0.127,-0.127 0.0478,0 0.0914,-0.0195 0.1227,-0.0508 0.0313,-0.0313 0.0508,-0.0748 0.0508,-0.1227l0 -0.1971 -1.2538 0 0 0.1971c0,0.1173 -0.0481,0.2242 -0.1254,0.3016 -0.0779,0.0778 -0.1848,0.1259 -0.3021,0.1259 -0.0701,0 -0.127,-0.0569 -0.127,-0.127 0,-0.0701 0.0569,-0.127 0.127,-0.127 0.0479,0 0.0914,-0.0195 0.1227,-0.0508 0.0313,-0.0313 0.0508,-0.0748 0.0508,-0.1227l0 -0.1971 -1.2539 0 0 0.1971c0,0.1173 -0.0481,0.2242 -0.1254,0.3016 -0.0779,0.0778 -0.1848,0.1259 -0.3021,0.1259 -0.0701,0 -0.127,-0.0569 -0.127,-0.127 0,-0.0701 0.0569,-0.127 0.127,-0.127 0.0479,0 0.0914,-0.0195 0.1227,-0.0508 0.0313,-0.0313 0.0508,-0.0748 0.0508,-0.1227l0 -0.1971 -0.8923 0c-0.1049,0 -0.2003,0.0428 -0.2689,0.1115 -0.0692,0.0691 -0.112,0.1645 -0.112,0.2694l0 0.685 6.723 0 0 -0.685c0,-0.1049 -0.0428,-0.2003 -0.1115,-0.2689 -0.0691,-0.0692 -0.1645,-0.112 -0.2694,-0.112l-0.2913 0 0 0.1971c0,0.1173 -0.0481,0.2242 -0.1254,0.3016 -0.0779,0.0777 -0.1847,0.1259 -0.3021,0.1259 -0.0701,0 -0.127,-0.0569 -0.127,-0.127 0,-0.0701 0.0569,-0.127 0.127,-0.127 0.0478,0 0.0914,-0.0195 0.1227,-0.0508 0.0313,-0.0313 0.0508,-0.0748 0.0508,-0.1227l0 -0.1971 -1.2539 0zm2.1801 1.3199l-6.723 0 0 4.7865c0,0.1046 0.043,0.2 0.112,0.269 0.0686,0.0692 0.164,0.112 0.2689,0.112l5.9612 0c0.1021,0 0.1951,-0.0405 0.2633,-0.106l0.0056 -0.006c0.069,-0.069 0.112,-0.1644 0.112,-0.269l0 -4.7865z"/></g><text x="0" y="23.4666" fill="#000000" font-size="5px" font-weight="bold" font-family="'Helvetica Neue', Helvetica, Arial-Unicode, Arial, Sans-serif">Created by Yuniarti Pahlevie</text><text x="0" y="28.4666" fill="#000000" font-size="5px" font-weight="bold" font-family="'Helvetica Neue', Helvetica, Arial-Unicode, Arial, Sans-serif">from the Noun Project</text></svg>
    </symbol>
    <symbol id="icon-bulb" viewBox="0 0 8.4666 10.58325">
        <svg xmlns="http://www.w3.org/2000/svg" xmlns:xlink="http://www.w3.org/1999/xlink" xmlns:xodm="http://www.corel.com/coreldraw/odm/2003" xml:space="preserve" version="1.1" style="shape-rendering:geometricPrecision;text-rendering:geometricPrecision;image-rendering:optimizeQuality;" viewBox="0 0 8.4666 10.58325" x="0px" y="0px" fill-rule="evenodd" clip-rule="evenodd"><defs><style type="text/css">
        .fil0 {fill:black;fill-rule:nonzero}
        </style></defs><g><path class="fil0" d="M3.1854 6.0921c-0.0507,-0.3998 -0.3021,-0.7195 -0.5766,-1.0688 -0.4099,-0.5214 -0.8679,-1.1039 -0.8679,-2.118l0.0006 -0.0127c0.0063,-0.6811 0.2858,-1.297 0.7337,-1.7429 0.4509,-0.4488 1.0725,-0.7263 1.7583,-0.7263 0.6858,0 1.3075,0.2775 1.7583,0.7263 0.4507,0.4485 0.7308,1.0691 0.7338,1.7551 0.0005,1.0146 -0.4575,1.5971 -0.8673,2.1185 -0.2745,0.3493 -0.5259,0.669 -0.5766,1.0688l0.0373 0c0.0701,0 0.127,0.0569 0.127,0.127l0 0.5139c0,0.0701 -0.0569,0.127 -0.127,0.127l-2.1708 0c-0.0701,0 -0.127,-0.0569 -0.127,-0.127l0 -0.5139c0,-0.0701 0.0569,-0.127 0.127,-0.127l0.0372 0zm2.6567 -3.3894c0.0064,0.0055 0.0126,0.0113 0.0186,0.0173 0.0678,0.0679 0.1096,0.161 0.1096,0.2635 0,0.1028 -0.0418,0.1961 -0.1091,0.2634 -0.0674,0.0674 -0.1607,0.1092 -0.2635,0.1092 -0.044,0 -0.0863,-0.0077 -0.1256,-0.0219l-0.0295 0.0297c0.048,0.0476 0.0921,0.0948 0.1319,0.1413 0.2383,0.2778 0.3312,0.5441 0.2228,0.7321 -0.1086,0.1884 -0.3857,0.2409 -0.7457,0.1736 -0.0601,-0.0113 -0.123,-0.0258 -0.1881,-0.0436 -0.0172,0.0652 -0.036,0.1268 -0.0563,0.1843 -0.1217,0.3459 -0.3058,0.56 -0.523,0.56 -0.2172,0 -0.4013,-0.2141 -0.523,-0.56 -0.0203,-0.0575 -0.0391,-0.1191 -0.0563,-0.1843 -0.0226,0.0062 -0.045,0.0119 -0.067,0.0173 -0.295,0.0719 -0.5456,0.0735 -0.7069,-0.0032 -0.0185,0.0028 -0.0373,0.0043 -0.0565,0.0043 -0.1029,0 -0.1962,-0.0418 -0.2635,-0.1091l-0.0079 -0.0087c-0.0627,-0.0667 -0.1012,-0.1565 -0.1012,-0.2548 0,-0.1029 0.0418,-0.1962 0.1091,-0.2635 0.0673,-0.0673 0.1606,-0.1091 0.2635,-0.1091l0.0138 0.0003c0.0625,-0.0892 0.1426,-0.1824 0.2375,-0.2767 -0.0481,-0.0476 -0.0921,-0.0949 -0.1319,-0.1413 -0.2383,-0.2778 -0.3312,-0.5441 -0.2228,-0.7324 0.1086,-0.1881 0.3857,-0.2406 0.7457,-0.1733 0.06,0.0112 0.1229,0.0258 0.1879,0.0435 0.0589,-0.223 0.1385,-0.4075 0.2318,-0.5346 -0.0035,-0.0205 -0.0053,-0.0414 -0.0053,-0.0629 0,-0.1025 0.0418,-0.1956 0.1091,-0.263 0.0679,-0.0678 0.161,-0.1096 0.2635,-0.1096 0.1025,0 0.1956,0.0418 0.263,0.1091 0.0678,0.0679 0.1096,0.161 0.1096,0.2635 0,0.0366 -0.0053,0.0719 -0.0151,0.1053 0.0802,0.1236 0.1492,0.2922 0.2021,0.4923 0.0652,-0.0177 0.1281,-0.0324 0.1882,-0.0436 0.36,-0.0673 0.6371,-0.0148 0.7457,0.1731 0.0257,0.0444 0.0404,0.0927 0.0448,0.1439 0.0019,0.0222 0.0019,0.045 0,0.0686zm-0.5653 0.4693c-0.0329,-0.0556 -0.0517,-0.12 -0.0517,-0.1885 0,-0.1028 0.0418,-0.1961 0.1092,-0.2635 0.0622,-0.0622 0.1466,-0.1025 0.2403,-0.1083 -0.0535,-0.0796 -0.2309,-0.0915 -0.4764,-0.0456 -0.0574,0.0108 -0.1178,0.0249 -0.1805,0.0423 0.0205,0.1143 0.0365,0.2359 0.0474,0.3627 0.1045,0.0728 0.2017,0.1474 0.2903,0.2221l0.0214 -0.0212zm0.405 -0.2726c-0.0213,-0.0213 -0.0512,-0.0345 -0.0841,-0.0345 -0.0327,0 -0.0624,0.0133 -0.0838,0.0347 -0.0214,0.0214 -0.0348,0.0512 -0.0348,0.0839 0,0.033 0.0132,0.0627 0.0343,0.0838 0.0216,0.0216 0.0513,0.0348 0.0843,0.0348 0.0327,0 0.0625,-0.0134 0.0839,-0.0348 0.0214,-0.0214 0.0347,-0.0511 0.0347,-0.0838 0,-0.0329 -0.0132,-0.0628 -0.0345,-0.0841zm-1.1883 -0.8156c-0.0556,0.033 -0.1205,0.0519 -0.1897,0.0519 -0.0818,0 -0.1576,-0.0265 -0.2191,-0.0712 -0.0527,0.097 -0.0995,0.2238 -0.1379,0.3731 0.109,0.0394 0.2221,0.0863 0.3374,0.1404 0.1153,-0.0541 0.2285,-0.1011 0.3376,-0.1405 -0.0359,-0.1391 -0.0795,-0.2589 -0.1283,-0.3537zm-0.1056 -0.4048c-0.0213,-0.0213 -0.0512,-0.0345 -0.0841,-0.0345 -0.033,0 -0.0629,0.0133 -0.0841,0.0345 -0.0213,0.0213 -0.0345,0.0512 -0.0345,0.0841 0,0.0327 0.0133,0.0624 0.0347,0.0838 0.0214,0.0214 0.0512,0.0348 0.0839,0.0348 0.0327,0 0.0625,-0.0134 0.0839,-0.0348 0.0214,-0.0214 0.0347,-0.0511 0.0347,-0.0838 0,-0.0329 -0.0132,-0.0628 -0.0345,-0.0841zm-1.2594 2.062l0.009 0.0086c0.0678,0.0673 0.1096,0.1606 0.1096,0.2635 0,0.0629 -0.0158,0.1223 -0.0436,0.1744 0.101,0.0035 0.2288,-0.0133 0.3748,-0.0489 0.0237,-0.0058 0.0478,-0.0121 0.0723,-0.0189 -0.0204,-0.1143 -0.0364,-0.2359 -0.0473,-0.3629 -0.1044,-0.0728 -0.2015,-0.1472 -0.2902,-0.222 -0.0719,0.0706 -0.1339,0.1399 -0.1846,0.2062zm-0.17 0.1881c-0.0212,-0.0214 -0.051,-0.0346 -0.084,-0.0346 -0.0328,0 -0.0625,0.0133 -0.0839,0.0347 -0.0214,0.0214 -0.0347,0.0511 -0.0347,0.0839 0,0.0307 0.0114,0.0586 0.0301,0.0795l0.0046 0.0044c0.0214,0.0214 0.0511,0.0347 0.0839,0.0347 0.033,0 0.0628,-0.0132 0.0841,-0.0345 0.0213,-0.0213 0.0345,-0.0511 0.0345,-0.0841 0,-0.0328 -0.0133,-0.0625 -0.0346,-0.084zm0.9355 0.1111c0.033,-0.0124 0.0663,-0.0254 0.1,-0.0392l-0.0586 -0.0333 -0.0575 -0.0337c0.0049,0.0361 0.0103,0.0715 0.0161,0.1062zm0.3902 -0.1717c0.0733,-0.0369 0.1474,-0.0771 0.2218,-0.12 0.0743,-0.0429 0.1459,-0.087 0.2146,-0.132 0.0047,-0.0821 0.0071,-0.1665 0.0071,-0.2525 0,-0.0861 -0.0025,-0.1704 -0.0071,-0.2525 -0.0687,-0.0449 -0.1403,-0.0891 -0.2146,-0.132 -0.0743,-0.0429 -0.1484,-0.083 -0.2218,-0.1199 -0.0733,0.037 -0.1474,0.077 -0.2218,0.1199 -0.0743,0.0428 -0.146,0.0871 -0.2146,0.132 -0.0047,0.0821 -0.0071,0.1665 -0.0071,0.2525 0,0.086 0.0025,0.1704 0.0071,0.2525 0.0686,0.045 0.1403,0.0891 0.2146,0.132 0.0744,0.043 0.1484,0.083 0.2218,0.12zm0.697 -0.4376c0.0287,-0.0223 0.0566,-0.0446 0.0837,-0.0669 -0.0271,-0.0223 -0.055,-0.0446 -0.0837,-0.0669l0.0005 0.0669 -0.0005 0.0669zm0.2741 0.1039c-0.0385,0.0325 -0.0786,0.065 -0.1202,0.0972 -0.0541,0.0419 -0.1108,0.0836 -0.1699,0.1248 -0.0109,0.1269 -0.0269,0.2485 -0.0474,0.3628 0.0627,0.0174 0.123,0.0315 0.1804,0.0423 0.2511,0.047 0.431,0.0335 0.4799,-0.0511 0.0486,-0.0846 -0.0299,-0.2471 -0.196,-0.4408 -0.038,-0.0443 -0.0804,-0.0895 -0.1268,-0.1352zm-0.565 0.3992l-0.0573 0.0337 -0.0587 0.0333c0.0338,0.0138 0.067,0.0268 0.1,0.0391 0.0058,-0.0346 0.0111,-0.07 0.016,-0.1061zm-0.4061 0.216c-0.1153,0.054 -0.2284,0.1011 -0.3375,0.1405 0.0163,0.0632 0.0343,0.1226 0.0537,0.1777 0.0846,0.2405 0.1862,0.3894 0.2838,0.3894 0.0976,0 0.1992,-0.1489 0.2838,-0.3894 0.0194,-0.0551 0.0374,-0.1146 0.0537,-0.1778 -0.1091,-0.0394 -0.2222,-0.0863 -0.3375,-0.1404zm0.3902 -1.4621c-0.0329,0.0123 -0.0663,0.0253 -0.1,0.0391l0.0586 0.0333 0.0575 0.0337c-0.0049,-0.0361 -0.0103,-0.0715 -0.0161,-0.1061zm-1.0872 0.6092c-0.0287,0.0223 -0.0567,0.0446 -0.0837,0.0669 0.027,0.0223 0.0549,0.0446 0.0836,0.0669l-0.0004 -0.0669 0.0005 -0.0669zm-0.2741 -0.1039c0.0886,-0.0747 0.1857,-0.1492 0.2901,-0.222 0.0108,-0.1271 0.0268,-0.2487 0.0472,-0.3629 -0.0626,-0.0174 -0.1229,-0.0315 -0.1802,-0.0422 -0.2511,-0.047 -0.431,-0.0335 -0.4799,0.0511 -0.0486,0.0846 0.0299,0.2471 0.196,0.4408 0.038,0.0443 0.0804,0.0895 0.1268,0.1352zm0.565 -0.3994l0.0573 -0.0335 0.0586 -0.0333c-0.0336,-0.0137 -0.0669,-0.0267 -0.0998,-0.039 -0.0058,0.0346 -0.0112,0.0699 -0.0161,0.1058zm-0.0974 5.2494c-0.0701,0 -0.127,-0.0569 -0.127,-0.127 0,-0.0701 0.0569,-0.127 0.127,-0.127l0.9058 0c0.0701,0 0.127,0.0569 0.127,0.127 0,0.0701 -0.0569,0.127 -0.127,0.127l-0.9058 0zm-0.4697 -0.3944c-0.0701,0 -0.127,-0.0569 -0.127,-0.127 0,-0.0701 0.0569,-0.127 0.127,-0.127l1.8452 0c0.0701,0 0.127,0.0569 0.127,0.127 0,0.0701 -0.0569,0.127 -0.127,0.127l-1.8452 0zm0 -0.3945c-0.0701,0 -0.127,-0.0569 -0.127,-0.127 0,-0.0701 0.0569,-0.127 0.127,-0.127l1.8452 0c0.0701,0 0.127,0.0569 0.127,0.127 0,0.0701 -0.0569,0.127 -0.127,0.127l-1.8452 0zm1.7157 -1.1622c0.0482,-0.4827 0.3271,-0.8374 0.6322,-1.2256 0.384,-0.4886 0.8132,-1.0346 0.8132,-1.9612 -0.0023,-0.6158 -0.2541,-1.1731 -0.6589,-1.576 -0.4047,-0.4029 -0.9632,-0.6519 -1.5797,-0.6519 -0.6165,0 -1.175,0.2491 -1.5797,0.6519 -0.4026,0.4008 -0.6538,0.9542 -0.6593,1.566l0.0004 0.01c0,0.9268 0.4292,1.4726 0.8133,1.9612 0.3051,0.3882 0.584,0.7429 0.6322,1.2256l1.5863 0zm0.1653 0.254l-1.9168 0 0 0.2599 1.9168 0 0 -0.2599z"/></g><text x="0" y="23.4666" fill="#000000" font-size="5px" font-weight="bold" font-family="'Helvetica Neue', Helvetica, Arial-Unicode, Arial, Sans-serif">Created by Yuniarti Pahlevie</text><text x="0" y="28.4666" fill="#000000" font-size="5px" font-weight="bold" font-family="'Helvetica Neue', Helvetica, Arial-Unicode, Arial, Sans-serif">from the Noun Project</text></svg>    
    </symbol>
    <symbol id="icon-timeline" viewBox="0 0 8.4666 10.58325">
        <svg xmlns="http://www.w3.org/2000/svg" xmlns:xlink="http://www.w3.org/1999/xlink" xmlns:xodm="http://www.corel.com/coreldraw/odm/2003" xml:space="preserve" version="1.1" style="shape-rendering:geometricPrecision;text-rendering:geometricPrecision;image-rendering:optimizeQuality;" viewBox="0 0 8.4666 10.58325" x="0px" y="0px" fill-rule="evenodd" clip-rule="evenodd"><defs><style type="text/css">
        .fil0 {fill:black;fill-rule:nonzero}
        </style></defs><g><path class="fil0" d="M4.1063 0.5503c0,-0.0701 0.0569,-0.127 0.127,-0.127 0.0701,0 0.127,0.0569 0.127,0.127l0 0.8048c0.055,0.0194 0.1044,0.0509 0.1449,0.0913l0.0008 0.0008c0.0403,0.0404 0.0717,0.0897 0.091,0.1446l0.1702 0 0 -0.5942c0,-0.1217 0.0499,-0.2324 0.13,-0.3126 0.0802,-0.0807 0.1912,-0.1305 0.3131,-0.1305l1.4081 0c0.122,0 0.2329,0.0498 0.3131,0.13 0.0801,0.0801 0.1301,0.1911 0.1301,0.3131l0 0.7232c0,0.122 -0.05,0.233 -0.1301,0.3131 -0.0802,0.0802 -0.1911,0.13 -0.3131,0.13l-1.4081 0c-0.1215,0 -0.2324,-0.0499 -0.3126,-0.13 -0.052,-0.0521 -0.0911,-0.1164 -0.1124,-0.1881l-0.1883 0c-0.0194,0.055 -0.0509,0.1044 -0.0913,0.1449l-0.0008 0.0008c-0.0404,0.0403 -0.0897,0.0717 -0.1446,0.091l0 0.7096c0.055,0.0194 0.1044,0.0509 0.1449,0.0913l0.0008 0.0008c0.0695,0.0698 0.1126,0.166 0.1126,0.2716 0,0.1057 -0.0432,0.202 -0.1129,0.2719l-0.0008 0.0008c-0.0404,0.0403 -0.0897,0.0717 -0.1446,0.091l0 0.7097c0.055,0.0194 0.1044,0.0509 0.1449,0.0913l0.0008 0.0008c0.0403,0.0405 0.0717,0.0898 0.091,0.1447l0.1702 0 0 -0.5942c0,-0.1217 0.0499,-0.2324 0.13,-0.3126 0.0802,-0.0807 0.1912,-0.1305 0.3131,-0.1305l1.4081 0c0.122,0 0.2329,0.0498 0.3131,0.13 0.0801,0.0801 0.1301,0.1911 0.1301,0.3131l0 0.7232c0,0.122 -0.05,0.233 -0.1301,0.3131 -0.0802,0.0802 -0.1911,0.13 -0.3131,0.13l-1.4081 0c-0.1219,0 -0.2329,-0.0498 -0.3131,-0.13l-0.0075 -0.0082c-0.0478,-0.0502 -0.0841,-0.1117 -0.1044,-0.1799l-0.1884 0c-0.0193,0.0549 -0.0508,0.1043 -0.0912,0.1448l-0.0008 0.0008c-0.0404,0.0403 -0.0897,0.0717 -0.1446,0.091l0 0.7096c0.055,0.0194 0.1044,0.0509 0.1449,0.0913l0.0008 0.0008c0.0695,0.0698 0.1126,0.166 0.1126,0.2716 0,0.1057 -0.0432,0.202 -0.1129,0.2719l-0.0008 0.0008c-0.0404,0.0403 -0.0897,0.0717 -0.1446,0.091l0 0.7096c0.055,0.0194 0.1044,0.0509 0.1449,0.0913l0.0008 0.0008c0.0403,0.0405 0.0717,0.0899 0.091,0.1448l0.1702 0 0 -0.5942c0,-0.122 0.0498,-0.2329 0.13,-0.3131 0.0802,-0.0802 0.1911,-0.13 0.3131,-0.13l1.4081 0c0.122,0 0.233,0.0498 0.3132,0.13 0.0802,0.0802 0.13,0.1911 0.13,0.3131l0 0.7232c0,0.122 -0.05,0.233 -0.1301,0.3131 -0.0802,0.0802 -0.1911,0.13 -0.3131,0.13l-1.4081 0c-0.1219,0 -0.2329,-0.0498 -0.3131,-0.13l-0.0075 -0.0082c-0.0478,-0.0502 -0.0841,-0.1117 -0.1044,-0.1799l-0.1884 0c-0.0193,0.0549 -0.0508,0.1042 -0.0912,0.1447l-0.0008 0.0008c-0.0404,0.0403 -0.0897,0.0717 -0.1446,0.091l0 0.0857c0,0.0701 -0.0569,0.127 -0.127,0.127 -0.0701,0 -0.127,-0.0569 -0.127,-0.127l0 -0.0857c-0.055,-0.0194 -0.1044,-0.0509 -0.1449,-0.0913l-0.0008 -0.0008c-0.0695,-0.0698 -0.1126,-0.166 -0.1126,-0.2716 0,-0.1057 0.0432,-0.202 0.1129,-0.2719l0.0008 -0.0008c0.0404,-0.0403 0.0897,-0.0717 0.1446,-0.091l0 -0.7096c-0.055,-0.0194 -0.1044,-0.0509 -0.1449,-0.0913l-0.0008 -0.0008c-0.0402,-0.0404 -0.0716,-0.0897 -0.0909,-0.1445l-0.1884 0c-0.0203,0.0682 -0.0566,0.1297 -0.1044,0.1799l-0.0075 0.0082c-0.0802,0.0802 -0.1912,0.13 -0.3131,0.13l-1.4081 0c-0.122,0 -0.2329,-0.0498 -0.3131,-0.13 -0.0801,-0.0801 -0.1301,-0.1911 -0.1301,-0.3131l0 -0.7232c0,-0.122 0.05,-0.233 0.1301,-0.3131 0.0802,-0.0802 0.1911,-0.13 0.3131,-0.13l1.4081 0c0.1215,0 0.2324,0.0499 0.3126,0.13 0.0806,0.0807 0.1305,0.1916 0.1305,0.3131l0 0.5942 0.1702 0c0.0193,-0.055 0.0509,-0.1045 0.0913,-0.145l0.0008 -0.0008c0.0404,-0.0403 0.0897,-0.0717 0.1446,-0.091l0 -0.7096c-0.055,-0.0194 -0.1044,-0.0509 -0.1449,-0.0913l-0.0008 -0.0008c-0.0695,-0.0698 -0.1126,-0.166 -0.1126,-0.2716 0,-0.1057 0.0432,-0.202 0.1129,-0.2719l0.0008 -0.0008c0.0404,-0.0403 0.0897,-0.0717 0.1446,-0.091l0 -0.7097c-0.055,-0.0194 -0.1044,-0.0509 -0.1449,-0.0913l-0.0008 -0.0008c-0.0402,-0.0404 -0.0716,-0.0897 -0.0909,-0.1445l-0.1884 0c-0.0213,0.0717 -0.0604,0.136 -0.1119,0.1876 -0.0807,0.0806 -0.1916,0.1305 -0.3131,0.1305l-1.4081 0c-0.122,0 -0.2329,-0.0498 -0.3131,-0.13 -0.0801,-0.0801 -0.1301,-0.1911 -0.1301,-0.3131l0 -0.7232c0,-0.122 0.05,-0.233 0.1301,-0.3131 0.0802,-0.0802 0.1911,-0.13 0.3131,-0.13l1.4081 0c0.1219,0 0.2329,0.0498 0.3131,0.13 0.0801,0.0807 0.13,0.1914 0.13,0.3131l0 0.5942 0.1702 0c0.0193,-0.055 0.0509,-0.1045 0.0913,-0.145l0.0008 -0.0008c0.0404,-0.0403 0.0897,-0.0717 0.1446,-0.091l0 -0.7096c-0.055,-0.0194 -0.1044,-0.0509 -0.1449,-0.0913l-0.0008 -0.0008c-0.0695,-0.0698 -0.1126,-0.166 -0.1126,-0.2716 0,-0.1057 0.0432,-0.202 0.1129,-0.2719l0.0008 -0.0008c0.0404,-0.0403 0.0897,-0.0717 0.1446,-0.091l0 -0.8048zm2.5121 3.1324l-1.4081 0c-0.0518,0 -0.0993,0.0214 -0.1335,0.0556 -0.0342,0.0339 -0.0556,0.0814 -0.0556,0.1335l0 0.7232c0,0.0495 0.0194,0.0949 0.0505,0.1287l0.0051 0.0048c0.0342,0.0342 0.0817,0.0556 0.1335,0.0556l1.4081 0c0.0519,0 0.0993,-0.0214 0.1335,-0.0556 0.0342,-0.0342 0.0557,-0.0816 0.0557,-0.1335l0 -0.7232c0,-0.0519 -0.0215,-0.0993 -0.0557,-0.1335 -0.0342,-0.0342 -0.0816,-0.0556 -0.1335,-0.0556zm-2.2921 -2.057c-0.0236,-0.0237 -0.0565,-0.0382 -0.093,-0.0382 -0.0365,0 -0.0694,0.0145 -0.0928,0.038 -0.024,0.0239 -0.0385,0.0568 -0.0385,0.0933 0,0.0365 0.0146,0.0695 0.038,0.0928 0.0239,0.024 0.0568,0.0385 0.0933,0.0385 0.0365,0 0.0694,-0.0145 0.0928,-0.038 0.0239,-0.0238 0.0385,-0.0568 0.0385,-0.0933 0,-0.0365 -0.0145,-0.0694 -0.0383,-0.0931zm0 5.7481c-0.0236,-0.0237 -0.0565,-0.0382 -0.093,-0.0382 -0.0365,0 -0.0694,0.0145 -0.0928,0.038 -0.0239,0.0238 -0.0385,0.0568 -0.0385,0.0933 0,0.0365 0.0145,0.0694 0.038,0.0928 0.0239,0.024 0.0568,0.0385 0.0933,0.0385 0.0365,0 0.0694,-0.0145 0.0928,-0.038 0.024,-0.0239 0.0385,-0.0568 0.0385,-0.0933 0,-0.0365 -0.0146,-0.0695 -0.0383,-0.0931zm0 -1.437c-0.0236,-0.0237 -0.0565,-0.0382 -0.093,-0.0382 -0.0365,0 -0.0694,0.0145 -0.0928,0.038 -0.0239,0.0238 -0.0385,0.0568 -0.0385,0.0933 0,0.0365 0.0145,0.0694 0.038,0.0928 0.0239,0.024 0.0568,0.0385 0.0933,0.0385 0.0365,0 0.0694,-0.0145 0.0928,-0.038 0.024,-0.0239 0.0385,-0.0568 0.0385,-0.0933 0,-0.0365 -0.0146,-0.0695 -0.0383,-0.0931zm0 -1.437c-0.0236,-0.0237 -0.0565,-0.0382 -0.093,-0.0382 -0.0365,0 -0.0694,0.0145 -0.0928,0.038 -0.0239,0.0238 -0.0385,0.0568 -0.0385,0.0933 0,0.0365 0.0145,0.0694 0.038,0.0928 0.0239,0.024 0.0568,0.0385 0.0933,0.0385 0.0365,0 0.0694,-0.0145 0.0928,-0.038 0.024,-0.0239 0.0385,-0.0568 0.0385,-0.0933 0,-0.0365 -0.0146,-0.0695 -0.0383,-0.0931zm0 -1.4371c-0.0236,-0.0237 -0.0565,-0.0382 -0.093,-0.0382 -0.0365,0 -0.0694,0.0145 -0.0928,0.038 -0.024,0.0239 -0.0385,0.0568 -0.0385,0.0933 0,0.0365 0.0146,0.0695 0.038,0.0928 0.0239,0.024 0.0568,0.0385 0.0933,0.0385 0.0365,0 0.0694,-0.0145 0.0928,-0.038 0.0239,-0.0238 0.0385,-0.0568 0.0385,-0.0933 0,-0.0365 -0.0145,-0.0694 -0.0383,-0.0931zm2.2921 3.4941l-1.4081 0c-0.0519,0 -0.0993,0.0214 -0.1335,0.0556 -0.0342,0.0342 -0.0556,0.0816 -0.0556,0.1335l0 0.7232c0,0.0495 0.0194,0.0949 0.0505,0.1287l0.0051 0.0048c0.0342,0.0342 0.0817,0.0556 0.1335,0.0556l1.4081 0c0.0519,0 0.0993,-0.0214 0.1335,-0.0556 0.0342,-0.0342 0.0557,-0.0816 0.0557,-0.1335l0 -0.7232c0,-0.0519 -0.0214,-0.0993 -0.0556,-0.1335 -0.0342,-0.0342 -0.0817,-0.0556 -0.1336,-0.0556zm-3.3621 -4.3112l-1.4081 0c-0.0519,0 -0.0993,0.0214 -0.1335,0.0556 -0.0342,0.0342 -0.0557,0.0816 -0.0557,0.1335l0 0.7232c0,0.0519 0.0215,0.0993 0.0557,0.1335 0.0342,0.0342 0.0816,0.0556 0.1335,0.0556l1.4081 0c0.0521,0 0.0996,-0.0214 0.1337,-0.0554 0.034,-0.0341 0.0554,-0.0816 0.0554,-0.1337l0 -0.7232c0,-0.0521 -0.0214,-0.0996 -0.0554,-0.1337 -0.0344,-0.034 -0.0819,-0.0554 -0.1337,-0.0554zm0 2.8741l-1.4081 0c-0.0519,0 -0.0993,0.0214 -0.1335,0.0556 -0.0342,0.0342 -0.0557,0.0816 -0.0557,0.1335l0 0.7232c0,0.0519 0.0215,0.0993 0.0557,0.1335 0.0342,0.0342 0.0816,0.0556 0.1335,0.0556l1.4081 0c0.0518,0 0.0993,-0.0214 0.1335,-0.0556l0.0051 -0.0048c0.0311,-0.0338 0.0505,-0.0792 0.0505,-0.1287l0 -0.7232c0,-0.0521 -0.0214,-0.0996 -0.0554,-0.1337 -0.0341,-0.034 -0.0816,-0.0554 -0.1337,-0.0554zm3.3621 -4.3112l-1.4081 0c-0.0518,0 -0.0993,0.0214 -0.1335,0.0556 -0.0342,0.0339 -0.0556,0.0814 -0.0556,0.1335l0 0.7232c0,0.0521 0.0214,0.0996 0.0554,0.1337 0.0341,0.034 0.0816,0.0554 0.1337,0.0554l1.4081 0c0.0519,0 0.0993,-0.0214 0.1335,-0.0556 0.0342,-0.0342 0.0557,-0.0816 0.0557,-0.1335l0 -0.7232c0,-0.0519 -0.0215,-0.0993 -0.0557,-0.1335 -0.0342,-0.0342 -0.0816,-0.0556 -0.1335,-0.0556z"/></g><text x="0" y="23.4666" fill="#000000" font-size="5px" font-weight="bold" font-family="'Helvetica Neue', Helvetica, Arial-Unicode, Arial, Sans-serif">Created by Yuniarti Pahlevie</text><text x="0" y="28.4666" fill="#000000" font-size="5px" font-weight="bold" font-family="'Helvetica Neue', Helvetica, Arial-Unicode, Arial, Sans-serif">from the Noun Project</text></svg>    
    </symbol>
    <symbol id="icon-checklist" viewBox="0 0 8.4666 10.58325">
        <svg xmlns="http://www.w3.org/2000/svg" xmlns:xlink="http://www.w3.org/1999/xlink" xmlns:xodm="http://www.corel.com/coreldraw/odm/2003" xml:space="preserve" version="1.1" style="shape-rendering:geometricPrecision;text-rendering:geometricPrecision;image-rendering:optimizeQuality;" viewBox="0 0 8.4666 10.58325" x="0px" y="0px" fill-rule="evenodd" clip-rule="evenodd"><defs><style type="text/css">
        .fil0 {fill:black;fill-rule:nonzero}   
        </style></defs><g><path class="fil0" d="M5.4497 0.6915l1.495 0c0.0701,0 0.127,0.0569 0.127,0.127l0 7.0978c0,0.0701 -0.0569,0.127 -0.127,0.127l-5.4228 0c-0.0701,0 -0.127,-0.0569 -0.127,-0.127l0 -7.0978c0,-0.0701 0.0569,-0.127 0.127,-0.127l1.4953 0 0 -0.1412c0,-0.0701 0.0569,-0.127 0.127,-0.127l2.1785 0c0.0701,0 0.127,0.0569 0.127,0.127l0 0.1412zm-1.3335 5.1662c-0.0701,0 -0.127,-0.0569 -0.127,-0.127 0,-0.0701 0.0569,-0.127 0.127,-0.127l1.808 0c0.0701,0 0.127,0.0569 0.127,0.127 0,0.0701 -0.0569,0.127 -0.127,0.127l-1.808 0zm0 0.4414c-0.0701,0 -0.127,-0.0569 -0.127,-0.127 0,-0.0701 0.0569,-0.127 0.127,-0.127l1.378 0c0.0701,0 0.127,0.0569 0.127,0.127 0,0.0701 -0.0569,0.127 -0.127,0.127l-1.378 0zm0 -2.1143c-0.0701,0 -0.127,-0.0569 -0.127,-0.127 0,-0.0701 0.0569,-0.127 0.127,-0.127l1.808 0c0.0701,0 0.127,0.0569 0.127,0.127 0,0.0701 -0.0569,0.127 -0.127,0.127l-1.808 0zm0 0.4414c-0.0701,0 -0.127,-0.0569 -0.127,-0.127 0,-0.0701 0.0569,-0.127 0.127,-0.127l1.378 0c0.0701,0 0.127,0.0569 0.127,0.127 0,0.0701 -0.0569,0.127 -0.127,0.127l-1.378 0zm0 -2.1141c-0.0701,0 -0.127,-0.0569 -0.127,-0.127 0,-0.0701 0.0569,-0.127 0.127,-0.127l1.808 0c0.0701,0 0.127,0.0569 0.127,0.127 0,0.0701 -0.0569,0.127 -0.127,0.127l-1.808 0zm0 0.4414c-0.0701,0 -0.127,-0.0569 -0.127,-0.127 0,-0.0701 0.0569,-0.127 0.127,-0.127l1.378 0c0.0701,0 0.127,0.0569 0.127,0.127 0,0.0701 -0.0569,0.127 -0.127,0.127l-1.378 0zm-1.311 -0.3768c-0.0493,-0.0495 -0.049,-0.1298 0.0005,-0.1791 0.0495,-0.0493 0.1298,-0.049 0.1791,0.0005l0.1029 0.1029 0.4066 -0.4065c0.0495,-0.0495 0.1301,-0.0495 0.1796,0 0.0495,0.0495 0.0495,0.1301 0,0.1796l-0.4962 0.4961c-0.05,0.0493 -0.1303,0.049 -0.1796,-0.0005l-0.1929 -0.193zm0.5855 0.2359c0,-0.0701 0.0569,-0.127 0.127,-0.127 0.0701,0 0.127,0.0569 0.127,0.127l0 0.2808c0,0.0701 -0.0569,0.127 -0.127,0.127l-0.9753 0c-0.0701,0 -0.127,-0.0569 -0.127,-0.127l0 -0.9753c0,-0.0701 0.0569,-0.127 0.127,-0.127l0.5343 0c0.0701,0 0.127,0.0569 0.127,0.127 0,0.0701 -0.0569,0.127 -0.127,0.127l-0.4073 0 0 0.7213 0.7213 0 0 -0.1538zm-0.8483 2.5242l0.9753 0c0.0701,0 0.127,0.0569 0.127,0.127l0 0.9753c0,0.0701 -0.0569,0.127 -0.127,0.127l-0.9753 0c-0.0701,0 -0.127,-0.0569 -0.127,-0.127l0 -0.9753c0,-0.0701 0.0569,-0.127 0.127,-0.127zm0.8483 0.254l-0.7213 0 0 0.7213 0.7213 0 0 -0.7213zm-0.5855 -1.3413c-0.0493,-0.0495 -0.049,-0.1298 0.0005,-0.1791 0.0495,-0.0493 0.1298,-0.049 0.1791,0.0005l0.1029 0.1029 0.4066 -0.4065c0.0495,-0.0495 0.1301,-0.0495 0.1796,0 0.0495,0.0495 0.0495,0.1301 0,0.1796l-0.4962 0.4961c-0.05,0.0493 -0.1303,0.049 -0.1796,-0.0005l-0.1929 -0.193zm0.5855 0.2359c0,-0.0701 0.0569,-0.127 0.127,-0.127 0.0701,0 0.127,0.0569 0.127,0.127l0 0.2808c0,0.0701 -0.0569,0.127 -0.127,0.127l-0.9753 0c-0.0701,0 -0.127,-0.0569 -0.127,-0.127l0 -0.9753c0,-0.0701 0.0569,-0.127 0.127,-0.127l0.5343 0c0.0701,0 0.127,0.0569 0.127,0.127 0,0.0701 -0.0569,0.127 -0.127,0.127l-0.4073 0 0 0.7213 0.7213 0 0 -0.1538zm-0.3735 -3.5399l-1.3683 0 0 6.8438 5.1688 0 0 -6.8438 -1.368 0 0 0.1439 1.0553 0c0.0701,0 0.127,0.0569 0.127,0.127l0 6.1244c0,0.0701 -0.0569,0.127 -0.127,0.127l-4.5433 0c-0.0701,0 -0.127,-0.0569 -0.127,-0.127l0 -6.1244c0,-0.0701 0.0569,-0.127 0.127,-0.127l1.0555 0 0 -0.1439zm2.4325 0.3979l0 0.1822c0,0.0701 -0.0569,0.127 -0.127,0.127l-2.1785 0c-0.0701,0 -0.127,-0.0569 -0.127,-0.127l0 -0.1822 -0.9285 0 0 5.8704 4.2893 0 0 -5.8704 -0.9283 0zm-0.254 -0.6661l-1.9245 0 0 0.7213 1.9245 0 0 -0.7213z"/></g><text x="0" y="23.4666" fill="#000000" font-size="5px" font-weight="bold" font-family="'Helvetica Neue', Helvetica, Arial-Unicode, Arial, Sans-serif">Created by Yuniarti Pahlevie</text><text x="0" y="28.4666" fill="#000000" font-size="5px" font-weight="bold" font-family="'Helvetica Neue', Helvetica, Arial-Unicode, Arial, Sans-serif">from the Noun Project</text></svg>    
    </symbol>
    <symbol id="icon-sticky-note" viewBox="0 0 8.4666 10.58325">
        <svg xmlns="http://www.w3.org/2000/svg" xmlns:xlink="http://www.w3.org/1999/xlink" xmlns:xodm="http://www.corel.com/coreldraw/odm/2003" xml:space="preserve" version="1.1" style="shape-rendering:geometricPrecision;text-rendering:geometricPrecision;image-rendering:optimizeQuality;" viewBox="0 0 8.4666 10.58325" x="0px" y="0px" fill-rule="evenodd" clip-rule="evenodd"><defs><style type="text/css">
        .fil0 {fill:black;fill-rule:nonzero}
        </style></defs><g><path class="fil0" d="M0.5931 0.4233l6.4669 0c0.0701,0 0.127,0.0569 0.127,0.127l0 6.5525c0,0.0701 -0.0569,0.127 -0.127,0.127l-4.7738 0c-0.0311,0 -0.0597,-0.0112 -0.0818,-0.0298l-1.6837 -1.1787c-0.0351,-0.0245 -0.054,-0.0638 -0.054,-0.1037l-0.0006 -5.3673c0,-0.0701 0.0569,-0.127 0.127,-0.127zm1.1085 4.2453c-0.0701,0 -0.127,-0.0569 -0.127,-0.127 0,-0.0701 0.0569,-0.127 0.127,-0.127l3.1583 0c0.0701,0 0.127,0.0569 0.127,0.127 0,0.0701 -0.0569,0.127 -0.127,0.127l-3.1583 0zm0 -1.1797c-0.0701,0 -0.127,-0.0569 -0.127,-0.127 0,-0.0701 0.0569,-0.127 0.127,-0.127l4.2499 0c0.0701,0 0.127,0.0569 0.127,0.127 0,0.0701 -0.0569,0.127 -0.127,0.127l-4.2499 0zm0 -1.1796c-0.0701,0 -0.127,-0.0569 -0.127,-0.127 0,-0.0701 0.0569,-0.127 0.127,-0.127l4.2499 0c0.0701,0 0.127,0.0569 0.127,0.127 0,0.0701 -0.0569,0.127 -0.127,0.127l-4.2499 0zm-0.9815 3.4164l0.9781 -0.4868c0.0627,-0.0312 0.139,-0.0057 0.1702,0.057l0.0094 0.0254 0.5147 1.6545 4.5405 0 0 -6.2985 -6.2129 0 0 5.0484zm1.3518 1.0727l-0.3938 -1.2659 -0.8268 0.4115 1.2206 0.8544zm5.6745 -5.4347c0,-0.0701 0.0569,-0.127 0.127,-0.127 0.0701,0 0.127,0.0569 0.127,0.127l0 6.5526c0,0.0701 -0.0569,0.127 -0.127,0.127l-6.4669 0c-0.0701,0 -0.127,-0.0569 -0.127,-0.127 0,-0.0701 0.0569,-0.127 0.127,-0.127l6.3399 0 0 -6.4256zm-0.4068 -0.4068c0,-0.0701 0.0569,-0.127 0.127,-0.127 0.0701,0 0.127,0.0569 0.127,0.127l0 6.5526c0,0.0701 -0.0569,0.127 -0.127,0.127l-6.4668 0c-0.0701,0 -0.127,-0.0569 -0.127,-0.127 0,-0.0701 0.0569,-0.127 0.127,-0.127l6.3398 0 0 -6.4256z"/></g><text x="0" y="23.4666" fill="#000000" font-size="5px" font-weight="bold" font-family="'Helvetica Neue', Helvetica, Arial-Unicode, Arial, Sans-serif">Created by Yuniarti Pahlevie</text><text x="0" y="28.4666" fill="#000000" font-size="5px" font-weight="bold" font-family="'Helvetica Neue', Helvetica, Arial-Unicode, Arial, Sans-serif">from the Noun Project</text></svg>    
    </symbol>
    <symbol id="icon-spiral-main" viewBox="0 0 1200 1200">
        <svg width="1200pt" height="1200pt" version="1.1" viewBox="100 150 1300 1300" xmlns="http://www.w3.org/2000/svg">
        <defs><clipPath id="b"><path d="m234 269h745v681h-745z"/></clipPath><clipPath id="a"><path d="m1062.8 332.82-729.96-195.59-195.59 729.96 729.96 195.59z"/></clipPath></defs><g clip-path="url(#b)"><g clip-path="url(#a)">
        <path d="m518.57 936.46c70.77 18.961 147.12 17.023 217.86-6.6094 91.969-30.719 165.65-94.156 207.5-178.6 40.051-80.82 46.086-176.76 16.57-263.23-28.547-83.625-86.773-150.37-163.96-187.95-73.672-35.867-160.81-40.711-239.05-13.309-75.309 26.355-135.11 79.41-168.4 149.35-31.68 66.543-35.309 144.89-9.9922 214.9 24.203 66.969 72.055 119.81 134.79 148.79 59.453 27.445 129 29.871 190.79 6.6133 58.613-22.066 104.47-64.781 129.12-120.29 23.258-52.379 24.398-113.14 3.1211-166.73-19.961-50.266-57.57-89.102-105.9-109.37-45.344-18.996-97.375-18.801-142.75 0.58594-41.895 17.926-73.676 50.477-89.461 91.664-14.734 38.496-13.027 81.844 4.6836 118.96 16 33.523 43.621 58.098 77.777 69.223 31.535 10.234 67.234 6.6328 95.656-9.6523 25.07-14.383 42.184-37.344 48.156-64.645 5.5703-25.469-1.375-54.469-17.695-73.871-13.773-16.371-32.895-24.891-53.816-23.988-17.395 0.76172-30.879 15.473-30.121 32.855 0.75391 17.398 15.484 30.891 32.844 30.129 0.91797-0.042969 1.4688-0.074219 2.8555 1.5781 3.75 4.457 5.7422 13.523 4.3711 19.809-2.1914 9.9922-8.2148 17.875-17.918 23.418-13.043 7.4805-30.23 9.0742-44.824 4.418-22.508-7.3281-34.379-23.852-40.379-36.41-10.156-21.285-11.184-47.176-2.6953-69.273 9.6016-25.121 29.273-45.098 55.352-56.254 29.77-12.727 63.871-12.906 93.59-0.42188 32.574 13.648 58.023 40.105 71.672 74.488 15.074 37.938 14.289 80.898-2.1328 117.89-17.738 39.945-51.02 70.809-93.707 86.879-46.113 17.352-97.914 15.598-142.14-4.8516-47.32-21.863-83.527-61.984-101.95-112.99-19.629-54.289-16.84-114.94 7.6406-166.39 25.996-54.652 72.988-96.188 132.29-116.95 62.5-21.879 131.98-18.043 190.64 10.492 61.977 30.172 108.82 84.016 131.89 151.63 24.121 70.68 19.246 149-13.402 214.88-34.324 69.289-95.055 121.42-170.98 146.8-78.859 26.352-166.01 20.398-239.1-16.34-131.18-65.941-203.87-220.54-172.82-367.6 3.5938-17.031-7.2422-33.703-24.34-37.348-17.031-3.5938-33.75 7.3008-37.34 24.34-36.848 174.59 49.863 358.36 206.2 436.94 22.262 11.168 45.574 19.996 69.531 26.414z" fill="#010101"/></g></g></svg>
    </symbol>
    <symbol id="icon-user-profile" viewBox="-5.0 -10.0 110.0 135.0">
        <svg xmlns="http://www.w3.org/2000/svg" version="1.1" viewBox="-5.0 -10.0 110.0 130.0">
        <path d="m20.73 89.711c-12.547-8.9727-20.73-23.668-20.73-40.254 0-27.297 22.16-49.461 49.461-49.461 27.297 0 49.461 22.16 49.461 49.461 0 16.641-8.2344 31.375-20.852 40.34-8.0781 5.7422-17.953 9.1172-28.609 9.1172-10.711 0-20.629-3.4141-28.73-9.207zm60.855-11.609c6.793-7.6133 10.926-17.648 10.926-28.645 0-23.762-19.289-43.051-43.051-43.051-23.762 0-43.051 19.289-43.051 43.051 0 10.949 4.0938 20.941 10.836 28.543-0.039063-0.66406-0.0625-1.332-0.0625-2.0039 0-11.645 6.1875-21.855 15.449-27.52-1.3086-2.5664-2.0469-5.4688-2.0469-8.543 0-10.395 8.4375-18.832 18.832-18.832s18.832 8.4375 18.832 18.832c0 3.0742-0.73828 5.9805-2.0469 8.543 9.2656 5.6641 15.449 15.875 15.449 27.52 0 0.70703-0.023438 1.4062-0.070313 2.1055zm-56.363 6.9297c6.9062 4.7148 15.254 7.4727 24.238 7.4727 8.9375 0 17.242-2.7305 24.133-7.4062 1.0664-2.832 1.6523-5.8984 1.6523-9.1055 0-9.5508-5.1953-17.895-12.91-22.363-3.3711 3.1797-7.918 5.1328-12.918 5.1328s-9.543-1.9492-12.914-5.1289c-7.7148 4.4688-12.91 12.812-12.91 22.363 0 3.1758 0.57422 6.2188 1.625 9.0312l0.003906 0.007812zm14.477-37.371c2.2773 2.8555 5.7852 4.6875 9.7188 4.6875 3.9336 0 7.4414-1.832 9.7188-4.6875 1.6914-2.1211 2.7031-4.8125 2.7031-7.7305 0-6.8555-5.5664-12.422-12.422-12.422s-12.422 5.5664-12.422 12.422c0 2.9219 1.0117 5.6094 2.7031 7.7305z" fill-rule="evenodd"/>
        <text x="0.0" y="117.5" font-size="5.0" font-weight="bold" font-family="Arbeit Regular, Helvetica, Arial-Unicode, Arial, Sans-serif" fill="#000000">Created by Rian.maulana</text><text x="0.0" y="122.5" font-size="5.0" font-weight="bold" font-family="Arbeit Regular, Helvetica, Arial-Unicode, Arial, Sans-serif" fill="#000000">from Noun Project</text></svg>
    </symbol>
  </defs>
</svg>
